<svg width="227" height="224" viewBox="0 0 227 224" fill="none" xmlns="http://www.w3.org/2000/svg">
<circle cx="116.5" cy="110.5" r="110.5" fill="url(#paint0_linear_311_14)"/>
<path d="M151.809 87.1992L146.623 90.627C143.459 85.9395 139.328 82.248 134.23 79.5527C129.191 76.7988 123.713 75.4219 117.795 75.4219C108.186 75.4219 99.9824 78.8203 93.1855 85.6172C86.3887 92.4141 82.9902 100.617 82.9902 110.227C82.9902 119.836 86.3887 128.039 93.1855 134.836C99.9824 141.633 108.186 145.031 117.795 145.031C123.713 145.031 129.191 143.654 134.23 140.9C139.328 138.146 143.459 134.426 146.623 129.738L151.721 133.43C147.971 138.938 143.107 143.303 137.131 146.525C131.154 149.748 124.709 151.359 117.795 151.359C112.229 151.359 106.896 150.275 101.799 148.107C96.7598 145.939 92.3945 143.01 88.7031 139.318C85.0117 135.627 82.082 131.262 79.9141 126.223C77.7461 121.125 76.6621 115.793 76.6621 110.227C76.6621 104.66 77.7461 99.3574 79.9141 94.3184C82.082 89.2207 85.0117 84.8262 88.7031 81.1348C92.3945 77.4434 96.7598 74.5137 101.799 72.3457C106.896 70.1777 112.229 69.0938 117.795 69.0938C124.768 69.0938 131.242 70.7344 137.219 74.0156C143.195 77.2383 148.059 81.6328 151.809 87.1992ZM162.268 79.9922L156.994 83.4199C152.658 77.0918 147.033 72.082 140.119 68.3906C133.264 64.6406 125.822 62.7656 117.795 62.7656C109.182 62.7656 101.242 64.9043 93.9766 69.1816C86.7109 73.4004 80.9395 79.1426 76.6621 86.4082C72.4434 93.6738 70.334 101.613 70.334 110.227C70.334 118.84 72.4434 126.779 76.6621 134.045C80.9395 141.311 86.7109 147.082 93.9766 151.359C101.242 155.578 109.182 157.688 117.795 157.688C125.822 157.688 133.293 155.812 140.207 152.062C147.121 148.312 152.746 143.244 157.082 136.857L162.268 140.461C157.346 147.727 150.959 153.469 143.107 157.688C135.314 161.906 126.877 164.016 117.795 164.016C108.068 164.016 99.0742 161.613 90.8125 156.809C82.5508 152.004 76.0176 145.471 71.2129 137.209C66.4082 128.947 64.0059 119.953 64.0059 110.227C64.0059 100.5 66.4082 91.5059 71.2129 83.2441C76.0176 74.9824 82.5508 68.4492 90.8125 63.6445C99.0742 58.8398 108.068 56.4375 117.795 56.4375C126.877 56.4375 135.314 58.5469 143.107 62.7656C150.959 66.9844 157.346 72.7266 162.268 79.9922ZM172.814 72.9609L167.541 76.3887C162.033 68.3027 154.885 61.916 146.096 57.2285C137.365 52.4824 127.932 50.1094 117.795 50.1094C109.65 50.1094 101.857 51.6914 94.416 54.8555C86.9746 58.0195 80.5586 62.2969 75.168 67.6875C69.8359 73.0195 65.5879 79.4062 62.4238 86.8477C59.2598 94.2891 57.6777 102.082 57.6777 110.227C57.6777 118.371 59.2598 126.164 62.4238 133.605C65.5879 141.047 69.8359 147.463 75.168 152.854C80.5586 158.186 86.9746 162.434 94.416 165.598C101.857 168.762 109.65 170.344 117.795 170.344C127.99 170.344 137.453 167.971 146.184 163.225C154.914 158.479 162.033 152.062 167.541 143.977L172.639 147.756C166.545 156.662 158.664 163.723 148.996 168.938C139.387 174.094 128.986 176.672 117.795 176.672C105.783 176.672 94.6797 173.713 84.4844 167.795C74.2891 161.818 66.2031 153.732 60.2266 143.537C54.3086 133.342 51.3496 122.238 51.3496 110.227C51.3496 98.2148 54.3086 87.1113 60.2266 76.916C66.2031 66.7207 74.2891 58.6641 84.4844 52.7461C94.6797 46.7695 105.783 43.7812 117.795 43.7812C129.045 43.7812 139.504 46.418 149.172 51.6914C158.84 56.9062 166.721 63.9961 172.814 72.9609ZM183.186 65.7539L177.912 69.1816C171.232 59.3965 162.59 51.6621 151.984 45.9785C141.438 40.2949 130.041 37.4531 117.795 37.4531C107.951 37.4531 98.5176 39.3867 89.4941 43.2539C80.5293 47.0625 72.7949 52.2188 66.291 58.7227C59.7871 65.2266 54.6016 72.9902 50.7344 82.0137C46.9258 90.9785 45.0215 100.383 45.0215 110.227C45.0215 120.07 46.9258 129.504 50.7344 138.527C54.6016 147.492 59.7871 155.227 66.291 161.73C72.7949 168.234 80.5293 173.42 89.4941 177.287C98.5176 181.096 107.951 183 117.795 183C130.041 183 141.467 180.129 152.072 174.387C162.678 168.645 171.32 160.881 178 151.096L183.098 154.963C175.832 165.51 166.457 173.889 154.973 180.1C143.488 186.252 131.096 189.328 117.795 189.328C107.072 189.328 96.8184 187.219 87.0332 183C77.3066 178.84 68.8984 173.244 61.8086 166.213C54.7773 159.123 49.1523 150.715 44.9336 140.988C40.7734 131.203 38.6934 120.949 38.6934 110.227C38.6934 99.5039 40.7734 89.2793 44.9336 79.5527C49.1523 69.7676 54.7773 61.3594 61.8086 54.3281C68.8984 47.2383 77.3066 41.6133 87.0332 37.4531C96.8184 33.2344 107.072 31.125 117.795 31.125C131.154 31.125 143.576 34.2305 155.061 40.4414C166.545 46.6523 175.92 55.0898 183.186 65.7539Z" fill="white"/>
<defs>
<linearGradient id="paint0_linear_311_14" x1="6" y1="221" x2="227" y2="-10" gradientUnits="userSpaceOnUse">
<stop offset="0.14992" stop-color="#FF008A"/>
<stop offset="0.838076" stop-color="#8000FF"/>
</linearGradient>
</defs>
</svg>
